<svg width="217" height="566" viewBox="0 0 217 566" fill="none" xmlns="http://www.w3.org/2000/svg">
<path d="M39 279L40 277L42 246L47 225L50 194L54 199L45 235L47 259L42 278L40 289L39 279ZM53 536C54 529 55 524 61 516L63 511L64 486L70 458L75 433C76 427 75 421 77 416C79 409 83 402 83 394L84 390L91 375L98 361C101 357 107 355 111 358C117 362 123 366 124 374C126 388 132 402 136 415L143 447L148 474L154 509C155 518 155 527 160 534L161 542C163 551 155 566 163 566H215L210 554L191 539C186 534 185 527 186 520V498C185 490 186 482 182 475V471V456L179 416L178 389L177 386L173 373V360L171 327L167 279L166 258L161 241L160 225L161 221L164 190V207L166 224L174 255L179 298L180 310C181 316 193 316 196 314C201 310 203 307 203 297V279L199 252V204L196 170L191 145L184 124L163 91L150 82L146 73L71 95L36 110L18 184L20 275H15L25 307C23 315 29 317 38 318L37 335V355L35 398C34 408 37 418 32 427L31 431V463L26 520C25 528 26 534 20 542C20 542 6 564 3 566H58C58 566 53 543 53 536Z" fill="black" fill-opacity="0.71"/>
<path d="M22 248L20 282L15 275L12 248V210L11 203L12 182L16 158V155L24 128L31 110C32 106 34 104 36 102L43 96L47 95C41 105 59 100 62 105C70 124 64 145 55 168C40 206 27 215 22 208V248ZM93 3C94 6 100 3 103 2C96 32 90 56 95 85C80 98 75 91 55 89L59 86L63 65L67 50L74 25L85 7L93 3Z" fill="#01020B" fill-opacity="0.71"/>
<path d="M162 114C160 103 158 105 153 94L162 90L163 91L175 106L182 119L185 126L181 129L176 141L181 139L189 144V158L186 172L182 168L176 177L194 171V189H196L192 194L197 197L193 201L199 207H188L192 214L187 217L190 221L187 224H189L192 236L187 248L196 246L199 272L195 283L198 299L180 293L177 253L175 248L172 238L168 217L167 206V186L171 148L166 134L153 176L141 184L131 192L132 194L142 185L154 184V192L152 190L153 193L149 204L140 207L129 212L126 233L146 222L151 219L150 224L145 234V242L144 252L152 261L145 262L144 260L146 262L139 274L125 276L103 275L99 274H70L62 185C71 176 103 143 101 106C114 102 132 98 149 96L162 114ZM30 288L29 286L32 285L23 281L24 256C27 202 37 175 39 141L47 145L49 157L51 167V191L48 190L47 194L48 208L38 222L45 225L39 240L38 243L39 276L30 288ZM141 86L121 85C114 79 111 78 107 71L131 16L134 17L137 21L146 73L141 86Z" fill="#2A752C"/>
<path d="M102 88L121 87L142 93L144 98L121 96L102 92V88ZM124 8L132 12L131 16L123 19L124 8ZM158 108L162 119L160 120L158 108ZM141 86L146 91L141 86ZM79 235L78 240L76 239L79 235ZM90 159L87 158L88 157L90 159ZM118 76L117 78L116 77L118 76ZM86 272L85 271V270L86 271V272ZM158 108L154 106L158 108ZM90 159L91 162L90 159ZM82 239H81H82ZM135 131L134 130L135 131ZM100 218V217V218Z" fill="#31FF38"/>
<path d="M103 89V91L122 95L142 97L140 93L122 88L112 89H103ZM99 274L93 275L44 277L48 258L47 247L46 236L52 209L55 199L51 191V167L49 157L54 160V155L52 141L51 126L54 115L49 108L45 101L47 95L55 89L85 84L92 83L88 46L91 28L93 22L100 3L94 4L93 3L95 0H110L116 2L124 6V18L131 16L129 33L128 36L122 48L119 55L118 58L113 67L112 70L110 71C118 79 115 75 120 78L122 84L124 83L141 86L146 91L153 94L165 105L169 114L162 136L152 145V133L147 113L153 106L148 99L146 136L142 132V124L135 131L136 137L135 138L132 135L127 136L123 142L112 154L113 141L109 121L103 108L105 124L107 140L108 155V170L97 162H91L96 177L107 179L104 182L107 192L106 197L99 201L75 186L89 199L92 204L101 212L102 218H100L94 226L79 235L85 240L78 245C95 251 90 268 92 272L95 268L99 274Z" fill="#31FF38"/>
<path d="M90 264V265L89 264H90ZM20 282L18 248L20 227L19 216L16 210L23 208L27 183L21 172L33 170V144L35 136L37 128L36 119L46 145L41 143L44 158V170L40 202L32 207L41 215L26 235L37 239L31 243L33 257L30 280L32 285L29 286L20 282ZM131 16L132 12L134 17L131 16Z" fill="#31FF38"/>
</svg>
